<svg width="16" height="66" viewBox="0 0 16 66" fill="none" xmlns="http://www.w3.org/2000/svg">
<path d="M11.3583 42.6146C13.6864 40.7496 16 37.6867 16 32.8714C16 25.9659 12.2332 22.686 9.48577 20.2823C6.95526 18.0716 5.28513 16.6166 5.28513 13.1196C5.28513 6.86529 11.38 5.90061 11.6186 5.86041L12.4573 5.77199L12.197 0H11.3583C9.86896 0 0 2.44385 0 13.1196C0 19.4704 3.44871 22.485 6.22503 24.9047C8.73385 27.0914 10.7149 28.8117 10.7149 32.8633C10.7149 37.2285 6.90465 38.989 4.63443 39.6563L3.82467 40.0421V45.4202L4.57659 45.5408C4.82241 45.581 10.7076 46.6019 10.7076 53.2984C10.7076 58.9257 5.76954 59.9788 4.71396 60.1396L3.99096 60.2843V66H4.87302C6.70221 66 15.9855 63.7973 15.9855 53.2984C16 47.8641 13.6792 44.56 11.3583 42.6146Z" fill="white"/>
</svg>
