<svg width="34" height="34" viewBox="0 0 34 34" fill="none" xmlns="http://www.w3.org/2000/svg">
<mask id="mask0" mask-type="alpha" maskUnits="userSpaceOnUse" x="0" y="0" width="34" height="34">
<path fill-rule="evenodd" clip-rule="evenodd" d="M0 0H34V34H0V0Z" fill="white"/>
</mask>
<g mask="url(#mask0)">
<path fill-rule="evenodd" clip-rule="evenodd" d="M24.9241 15.1855C26.5902 15.1855 27.5059 16.0846 27.6712 17.886H22.0449C22.1044 17.0597 22.392 16.4052 22.911 15.916C23.4267 15.4301 24.0977 15.1855 24.9241 15.1855ZM21.3408 11.004H28.4017V9.29832H21.3408V11.004ZM25.1465 23.2872C24.1449 23.2872 23.3747 23.0062 22.8458 22.4476C22.3136 21.8857 22.0458 21.0957 22.0458 20.0776H31.1463C31.1595 19.9321 31.1694 19.7107 31.1694 19.4132C31.1694 17.4662 30.6174 15.8399 29.5199 14.5343C28.4191 13.2286 26.9184 12.5741 25.0143 12.5741C23.1268 12.5741 21.5764 13.2087 20.3666 14.4781C19.1534 15.7474 18.5518 17.3406 18.5518 19.2578C18.5518 21.251 19.1336 22.8509 20.3004 24.064C21.464 25.2738 23.0375 25.8754 25.0143 25.8754C28.039 25.8754 30.0092 24.4673 30.9248 21.651H27.8704C27.7084 22.1501 27.3547 22.5501 26.8192 22.8443C26.2804 23.1385 25.7217 23.2872 25.1465 23.2872ZM10.7574 22.5799H6.66504V17.777H10.8467C12.678 17.777 13.5937 18.61 13.5937 20.2792C13.5937 21.813 12.6483 22.5799 10.7574 22.5799ZM10.5591 15.1656H6.66504V11.0899H10.2715C12.0268 11.0899 12.9061 11.7543 12.9061 13.0831C12.9061 14.4714 12.1227 15.1656 10.5591 15.1656ZM11.0443 8.12489H2.83301V25.5449H11.2889C13.0144 25.5449 14.4689 25.1217 15.649 24.2722C16.8292 23.4227 17.4209 22.1666 17.4209 20.4974C17.4209 18.167 16.3664 16.6927 14.2541 16.0713C15.8342 15.3044 16.6242 14.0946 16.6242 12.4419C16.6242 11.6023 16.4788 10.8883 16.1912 10.3032C15.9036 9.72144 15.4871 9.2752 14.9416 8.96779C14.3962 8.65707 13.8144 8.43891 13.1929 8.3133C12.5748 8.18769 11.8575 8.12489 11.0443 8.12489ZM27.6254 0C29.3807 0 30.8847 0.624739 32.131 1.87091C33.3772 3.12039 34.002 4.62108 34.002 6.3763V27.6273C34.002 29.3826 33.3772 30.8832 32.131 32.1294C30.8847 33.3756 29.3807 34.0003 27.6254 34.0003H6.37661C4.618 34.0003 3.11723 33.3756 1.871 32.1294C0.621463 30.8832 0 29.3826 0 27.6273V6.3763C0 4.62108 0.621463 3.12039 1.871 1.87091C3.11723 0.624739 4.618 0 6.37661 0H27.6254Z" fill="white"/>
</g>
</svg>
