<svg width="34" height="34" viewBox="0 0 34 34" fill="none" xmlns="http://www.w3.org/2000/svg">
<mask id="mask0" mask-type="alpha" maskUnits="userSpaceOnUse" x="0" y="0" width="34" height="34">
<path fill-rule="evenodd" clip-rule="evenodd" d="M0 0H34V34H0V0Z" fill="white"/>
</mask>
<g mask="url(#mask0)">
<path fill-rule="evenodd" clip-rule="evenodd" d="M27.6238 0C29.379 0 30.883 0.624757 32.1292 1.87097C33.3754 3.11717 34.0001 4.61791 34.0001 6.37649V27.6248C34.0001 29.3834 33.3754 30.8841 32.1292 32.1304C30.883 33.3766 29.379 34.0013 27.6238 34.0013H23.4622V20.8285H27.8684L28.5328 15.695H23.4622V12.4191C23.4622 11.5927 23.6341 10.9713 23.9811 10.5581C24.3282 10.1449 25.0058 9.93991 26.0074 9.93991L28.708 9.91678V5.33523C27.7791 5.203 26.4669 5.13689 24.7678 5.13689C22.7614 5.13689 21.1549 5.72529 19.955 6.90538C18.7518 8.08878 18.1502 9.7548 18.1502 11.91V15.695H13.7242V20.8285H18.1502V34.0013H6.37606C4.62084 34.0013 3.11684 33.3766 1.87067 32.1304C0.624495 30.8841 -0.000244141 29.3834 -0.000244141 27.6248V6.37649C-0.000244141 4.61791 0.624495 3.11717 1.87067 1.87097C3.11684 0.624757 4.62084 0 6.37606 0H27.6238Z" fill="white"/>
</g>
</svg>
