<svg width="34" height="34" viewBox="0 0 34 34" fill="none" xmlns="http://www.w3.org/2000/svg">
<mask id="mask0" mask-type="alpha" maskUnits="userSpaceOnUse" x="0" y="0" width="34" height="34">
<path fill-rule="evenodd" clip-rule="evenodd" d="M0 0H34V34H0V0Z" fill="white"/>
</mask>
<g mask="url(#mask0)">
<path fill-rule="evenodd" clip-rule="evenodd" d="M23.6413 28.4672H28.7548V19.658C28.7548 17.3838 28.216 15.6649 27.1384 14.498C26.0609 13.3345 24.6362 12.7527 22.8678 12.7527C20.8581 12.7527 19.3177 13.6155 18.2401 15.3409H18.2831V13.1064H13.1729C13.2158 14.0782 13.2158 19.1985 13.1729 28.4672H18.2831V19.8794C18.2831 19.3175 18.336 18.9043 18.4385 18.6399C18.6599 18.1242 18.9938 17.6846 19.4367 17.321C19.8763 16.9606 20.425 16.7788 21.0729 16.7788C22.7851 16.7788 23.6413 17.9391 23.6413 20.2563V28.4672ZM5.24609 28.4672H10.3596V13.1064H5.24609V28.4672ZM10.6927 8.36624C10.6762 7.60267 10.4117 6.96801 9.89277 6.46557C9.37711 5.96313 8.69288 5.71191 7.83677 5.71191C6.97735 5.71191 6.2832 5.96313 5.74441 6.46557C5.20562 6.96801 4.93457 7.60267 4.93457 8.36624C4.93457 9.1199 5.1957 9.75126 5.72127 10.2603C6.24684 10.7694 6.92776 11.0239 7.77066 11.0239H7.79049C8.66313 11.0239 9.36389 10.7694 9.89277 10.2603C10.4249 9.75126 10.6927 9.1199 10.6927 8.36624ZM34 6.37636V27.6276C34 29.3828 33.3753 30.8835 32.1291 32.1297C30.8829 33.3759 29.379 34.0007 27.6238 34.0007H6.37624C4.62104 34.0007 3.11705 33.3759 1.87089 32.1297C0.624733 30.8835 0 29.3828 0 27.6276V6.37636C0 4.62113 0.624733 3.12042 1.87089 1.87093C3.11705 0.624745 4.62104 0 6.37624 0H27.6238C29.379 0 30.8829 0.624745 32.1291 1.87093C33.3753 3.12042 34 4.62113 34 6.37636Z" fill="white"/>
</g>
</svg>
