<svg width="34" height="34" viewBox="0 0 34 34" fill="none" xmlns="http://www.w3.org/2000/svg">
<mask id="mask0" mask-type="alpha" maskUnits="userSpaceOnUse" x="0" y="0" width="34" height="34">
<path fill-rule="evenodd" clip-rule="evenodd" d="M0 0H34V34H0V0Z" fill="white"/>
</mask>
<g mask="url(#mask0)">
<path fill-rule="evenodd" clip-rule="evenodd" d="M28.3338 10.6704C27.5073 11.0373 26.6148 11.2886 25.6561 11.4241C26.6578 10.8324 27.3454 9.96964 27.7156 8.83251C26.7536 9.39446 25.7652 9.7713 24.7503 9.96303C23.8478 8.98787 22.7173 8.50195 21.3619 8.50195C20.0759 8.50195 18.9817 8.95482 18.0726 9.86055C17.1668 10.7696 16.7106 11.8637 16.7106 13.1496C16.7106 13.576 16.7503 13.9297 16.823 14.2107C14.9189 14.1082 13.1338 13.6289 11.4644 12.7728C9.79825 11.9166 8.38006 10.7729 7.21643 9.34157C6.78668 10.0787 6.5718 10.8621 6.5718 11.6885C6.5718 13.3711 7.24618 14.6636 8.58833 15.5594C7.89411 15.5462 7.15692 15.3544 6.37345 14.9875V15.0305C6.37345 16.1379 6.7437 17.1229 7.48089 17.9857C8.21808 18.8485 9.12717 19.384 10.2049 19.5889C9.77511 19.7079 9.39825 19.7674 9.07428 19.7674C8.88254 19.7674 8.59494 19.7377 8.21147 19.6782C8.52221 20.607 9.07097 21.3772 9.86106 21.9822C10.6511 22.5871 11.547 22.8978 12.552 22.911C10.8396 24.2366 8.9123 24.9043 6.77345 24.9043C6.38998 24.9043 6.01973 24.8812 5.66602 24.8382C7.85114 26.2232 10.2247 26.9174 12.7933 26.9174C14.4462 26.9174 15.9966 26.6563 17.4445 26.1307C18.8892 25.6084 20.1288 24.9076 21.1635 24.0283C22.1949 23.149 23.0842 22.1408 23.828 20.9971C24.5751 19.8534 25.1272 18.6567 25.4908 17.4105C25.8511 16.1643 26.033 14.9214 26.033 13.6818C26.033 13.4141 26.023 13.2157 26.0098 13.0802C26.9387 12.4191 27.7156 11.6158 28.3338 10.6704ZM34 6.37649V27.6248C34 29.3834 33.3785 30.8841 32.1289 32.1304C30.8826 33.3766 29.3818 34.0013 27.6264 34.0013H6.37355C4.61818 34.0013 3.11736 33.3766 1.87107 32.1304C0.621488 30.8841 0 29.3834 0 27.6248V6.37649C0 4.61791 0.621488 3.11717 1.87107 1.87097C3.11736 0.624757 4.61818 0 6.37355 0H27.6264C29.3818 0 30.8826 0.624757 32.1289 1.87097C33.3785 3.11717 34 4.61791 34 6.37649Z" fill="white"/>
</g>
</svg>
